{"title":"Rajdhani Express 2013 Hindi HD CAM Rip XviD Best Quality Sample ","uid":7994013,"size":729618872,"categoryP":"video","categoryS":"movies","magnet":"?xt=urn:btih:10f73b16aecaa154d2c96c88102487f35f6098c3&amp;dn=Rajdhani+Express+2013+Hindi+HD+CAM+Rip+XviD+Best+Quality+Sample+&amp;tr=udp%3A%2F%2Ftracker.openbittorrent.com%3A80&amp;tr=udp%3A%2F%2Fopen.demonii.com%3A1337&amp;tr=udp%3A%2F%2Ftracker.coppersurfer.tk%3A6969&amp;tr=udp%3A%2F%2Fexodus.desync.com%3A6969","seeders":0,"leechers":0,"uploader":"basicssom","files":2,"time":1357565382,"description":"Rajdhani Express 2013 Hindi Movies HD CAM Rip XviD Best Quality Sample Included ~ rDX\n\nScreen Shots :\n &lt;a href=&quot;\nhttp://myimghosting.serveftp.com/RajdhaniExpressHDCam.html&quot; rel=&quot;nofollow&quot; target=&quot;_NEW&quot;&gt;\nhttp://myimghosting.serveftp.com/RajdhaniExpressHDCam.html&lt;/a&gt;\n &lt;a href=&quot;\nhttp://myimghost.cwahi.net/RajdhaniExpressHDCam.html&quot; rel=&quot;nofollow&quot; target=&quot;_NEW&quot;&gt;\nhttp://myimghost.cwahi.net/RajdhaniExpressHDCam.html&lt;/a&gt;\n\nFormat                                   : AVI\nFormat/Info                              : Audio Video Interleave\nFile size                                : 6.72 MiB\nDuration                                 : 1mn 4s\nOverall bit rate                         : 875 Kbps\nWriting library                          : MPlayer\n\nVideo\nID                                       : 0\nFormat                                   : MPEG-4 Visual\nFormat profile                           : Advanced Simple@L5\nFormat settings, BVOP                    : 2\nFormat settings, QPel                    : No\nFormat settings, GMC                     : No warppoints\nFormat settings, Matrix                  : Default (H.263)\nCodec ID                                 : XVID\nCodec ID/Hint                            : XviD\nDuration                                 : 1mn 4s\nBit rate                                 : 789 Kbps\nWidth                                    : 640 pixels\nHeight                                   : 272 pixels\nDisplay aspect ratio                     : 2.35:1\nFrame rate                               : 25.000 fps\nColor space                              : YUV\nChroma subsampling                       : 4:2:0\nBit depth                                : 8 bits\nScan type                                : Progressive\nCompression mode                         : Lossy\nBits/(Pixel*Frame)                       : 0.181\nStream size                              : 6.06 MiB (90%)\nWriting library                          : XviD 63\n\nAudio\nID                                       : 1\nFormat                                   : MPEG Audio\nFormat version                           : Version 1\nFormat profile                           : Layer 3\nCodec ID                                 : 55\nCodec ID/Hint                            : MP3\nDuration                                 : 1mn 4s\nBit rate mode                            : Constant\nBit rate                                 : 80.0 Kbps\nChannel(s)                               : 2 channels\nSampling rate                            : 48.0 KHz\nCompression mode                         : Lossy\nStream size                              : 629 KiB (9%)\nAlignment                                : Split accross interleaves\nInterleave, duration                     : 500 ms (12.49 video frames)\nInterleave, preload duration             : 500 ms","torrent":{"xt":"urn:btih:10f73b16aecaa154d2c96c88102487f35f6098c3","amp;dn":"Rajdhani+Express+2013+Hindi+HD+CAM+Rip+XviD+Best+Quality+Sample+","amp;tr":["udp%3A%2F%2Ftracker.openbittorrent.com%3A80","udp%3A%2F%2Fopen.demonii.com%3A1337","udp%3A%2F%2Ftracker.coppersurfer.tk%3A6969","udp%3A%2F%2Fexodus.desync.com%3A6969"],"infoHash":"10f73b16aecaa154d2c96c88102487f35f6098c3","infoHashBuffer":{"type":"Buffer","data":[16,247,59,22,174,202,161,84,210,201,108,136,16,36,135,243,95,96,152,195]},"announce":[],"urlList":[]}}